<svg xmlns="http://www.w3.org/2000/svg" xmlns:xlink="http://www.w3.org/1999/xlink" fill="none" version="1.1" width="45" height="45" viewBox="0 0 45 45"><defs><clipPath id="master_svg0_77_5447"><rect x="0" y="0" width="45" height="45" rx="0"/></clipPath></defs><g clip-path="url(#master_svg0_77_5447)"><g><path d="M22.5,5.625C13.1802,5.625,5.625,13.1802,5.625,22.5C5.625,31.8199,13.1802,39.375,22.5,39.375C31.8199,39.375,39.375,31.8199,39.375,22.5C39.375,13.1802,31.8199,5.625,22.5,5.625C22.5,5.625,22.5,5.625,22.5,5.625ZM1.875,22.5C1.875,11.10913,11.10913,1.875,22.5,1.875C33.8908,1.875,43.125,11.10913,43.125,22.5C43.125,33.8908,33.8908,43.125,22.5,43.125C11.10913,43.125,1.875,33.8908,1.875,22.5C1.875,22.5,1.875,22.5,1.875,22.5ZM22.5,13.125C17.3223,13.125,13.125,17.3223,13.125,22.5C13.125,27.6776,17.3223,31.875,22.5,31.875C27.6776,31.875,31.875,27.6776,31.875,22.5C31.875,17.3223,27.6776,13.125,22.5,13.125C22.5,13.125,22.5,13.125,22.5,13.125ZM9.375,22.5C9.375,15.2513,15.2513,9.375,22.5,9.375C29.7488,9.375,35.625,15.2513,35.625,22.5C35.625,29.7488,29.7488,35.625,22.5,35.625C15.2513,35.625,9.375,29.7488,9.375,22.5C9.375,22.5,9.375,22.5,9.375,22.5ZM22.5,20.625C21.4644,20.625,20.625,21.4644,20.625,22.5C20.625,23.5356,21.4644,24.375,22.5,24.375C23.5356,24.375,24.375,23.5356,24.375,22.5C24.375,21.4644,23.5356,20.625,22.5,20.625C22.5,20.625,22.5,20.625,22.5,20.625ZM16.875,22.5C16.875,19.3934,19.3934,16.875,22.5,16.875C25.6067,16.875,28.125,19.3934,28.125,22.5C28.125,25.6067,25.6067,28.125,22.5,28.125C19.3934,28.125,16.875,25.6067,16.875,22.5C16.875,22.5,16.875,22.5,16.875,22.5Z" fill-rule="evenodd" fill="#000000" fill-opacity="1"/></g></g></svg>