<svg t="1728811479860" class="icon" viewBox="0 0 1024 1024" version="1.1" xmlns="http://www.w3.org/2000/svg" p-id="2811"
     width="200" height="200">
    <path d="M0.20738 512.006035A510.866967 510.866967 0 1 0 511.074347 0.934068 510.866967 510.866967 0 0 0 0.20738 512.006035z m0 0"
          fill="#FFFFFF" p-id="2812"></path>
    <path d="M257.893859 446.011168L111.668154 192.87968a510.559968 510.559968 0 0 1 839.004304 57.547884H533.909301a190.666615 190.666615 0 0 0-22.834954-0.920998 263.727467 263.727467 0 0 0-253.180488 196.502602z m0 0"
          fill="#DD4E41" p-id="2813"></path>
    <path d="M693.855977 324.463414H987.229384a504.51898 504.51898 0 0 1 34.71293 186.416623 510.610968 510.610968 0 0 1-505.234979 510.918967l209.302577-361.929268a260.860473 260.860473 0 0 0-31.999935-335.406322z m0 0"
          fill="#FFCD41" p-id="2814"></path>
    <path d="M325.527722 512.006035a185.546625 185.546625 0 1 1 185.546625 185.341625 185.649625 185.649625 0 0 1-185.546625-185.341625z m0 0"
          fill="#4C8BF5" p-id="2815"></path>
    <path d="M581.422205 764.060525l-146.225705 254.102487A511.993965 511.993965 0 0 1 0.00238 512.774033a504.108981 504.108981 0 0 1 66.149866-250.467493l208.381579 360.085272a263.011468 263.011468 0 0 0 236.540522 150.731695 303.356387 303.356387 0 0 0 70.399858-9.113981z m0 0"
          fill="#1DA362" p-id="2816"></path>
</svg>