<svg xmlns="http://www.w3.org/2000/svg" xmlns:xlink="http://www.w3.org/1999/xlink" fill="none" version="1.1" width="46" height="46" viewBox="0 0 46 46"><defs><clipPath id="master_svg0_77_4872"><rect x="0" y="0" width="46" height="46" rx="0"/></clipPath></defs><g clip-path="url(#master_svg0_77_4872)"><g><path d="M20.1292298828125,2.6885172265625C21.0023298828125,2.1853872265625,21.9923298828125,1.9205322265625,23.0001298828125,1.9205322265625C24.0079298828125,1.9205322265625,24.9979298828125,2.1854082265625,25.8711298828125,2.6885792265625C25.8711298828125,2.6885792265625,25.8751298828125,2.6908862265625,25.8751298828125,2.6908862265625C25.8751298828125,2.6908862265625,31.9962298828125,6.1887022265625,31.9962298828125,6.1887022265625C32.3991298828125,6.2683722265625,32.7748298828125,6.4763922265625,33.057729882812495,6.7951722265625C33.057729882812495,6.7951722265625,39.2918298828125,10.3575222265625,39.2918298828125,10.3575222265625C40.0008298828125,10.7669622265625,40.6124298828125,11.3219722265625,41.0875298828125,11.9836322265625C41.2031298828125,12.0993322265625,41.3059298828125,12.2318322265625,41.3917298828125,12.3802322265625C41.4655298828125,12.5080322265625,41.5230298828125,12.6407322265625,41.5648298828125,12.7760322265625C41.9590298828125,13.5685322265625,42.1659298828125,14.4429322265625,42.1668298828125,15.3313322265625C42.1668298828125,15.3313322265625,42.1668298828125,22.9632322265625,42.1668298828125,22.9632322265625C42.1672298828125,22.9864322265625,42.1672298828125,23.0098322265625,42.1668298828125,23.0332322265625C42.1668298828125,23.0332322265625,42.1668298828125,30.6686322265625,42.1668298828125,30.6686322265625C42.1657298828125,31.6769322265625,41.8996298828125,32.6673322265625,41.3950298828125,33.5401322265625C40.8903298828125,34.4132322265625,40.1650298828125,35.1381322265625,39.2918298828125,35.6423322265625C39.2918298828125,35.6423322265625,39.2843298828125,35.6466322265625,39.2843298828125,35.6466322265625C39.2843298828125,35.6466322265625,33.056729882812505,39.2052322265625,33.056729882812505,39.2052322265625C32.7838298828125,39.5115322265625,32.413929882812496,39.7298322265625,31.9954298828125,39.8117322265625C31.9954298828125,39.8117322265625,25.8751298828125,43.3090322265625,25.8751298828125,43.3090322265625C25.8751298828125,43.3090322265625,25.8717298828125,43.3109322265625,25.8717298828125,43.3109322265625C25.2637298828125,43.6615322265625,24.5988298828125,43.8963322265625,23.9110298828125,44.0067322265625C23.6401298828125,44.1533322265625,23.3298298828125,44.2365322265625,23.0001298828125,44.2365322265625C22.6704298828125,44.2365322265625,22.3601298828125,44.1533322265625,22.0892298828125,44.0067322265625C21.4013298828125,43.8963322265625,20.7366298828125,43.6615322265625,20.1286298828125,43.3109322265625C20.1286298828125,43.3109322265625,20.1251298828125,43.3090322265625,20.1251298828125,43.3090322265625C20.1251298828125,43.3090322265625,14.0048298828125,39.8117322265625,14.0048298828125,39.8117322265625C13.5862598828125,39.7298322265625,13.2164798828125,39.5115322265625,12.9435498828125,39.2052322265625C12.9435498828125,39.2052322265625,6.7158498828125,35.6466322265625,6.7158498828125,35.6466322265625C6.7158498828125,35.6466322265625,6.7084598828125,35.6423322265625,6.7084598828125,35.6423322265625C5.8351998828125,35.1381322265625,5.1098898828124995,34.4132322265625,4.6052758828125,33.5401322265625C4.1006618828125,32.6673322265625,3.8344846528125,31.6769322265625,3.8334504188125,30.6686322265625C3.8334504188125,30.6686322265625,3.8334493888125,23.0332322265625,3.8334493888125,23.0332322265625C3.8330239518125,23.0098322265625,3.8330228098125,22.9864322265625,3.8334493888125,22.9632322265625C3.8334493888125,22.9632322265625,3.8334504188125,15.3313322265625,3.8334504188125,15.3313322265625C3.8343616128125,14.4429322265625,4.0410728828125,13.5685322265625,4.4353218828125,12.7760322265625C4.4770948828125,12.6407322265625,4.5346168828125,12.5080322265625,4.6085348828125,12.3802322265625C4.6943498828125,12.2318322265625,4.7970058828125,12.0993322265625,4.9126898828125,11.9836322265625C5.3877398828125,11.3219722265625,5.9993298828125,10.7669622265625,6.7084598828125,10.3575422265625C6.7084598828125,10.3575422265625,6.7158298828125,10.3532922265625,6.7158298828125,10.3532922265625C6.7158298828125,10.3532922265625,12.9425698828125,6.7951722265625,12.9425698828125,6.7951722265625C13.2254698828125,6.4763922265625,13.6011498828125,6.2683722265625,14.0039298828125,6.1887022265625C14.0039298828125,6.1887022265625,20.1292298828125,2.6885172265625,20.1292298828125,2.6885172265625C20.1292298828125,2.6885172265625,20.1292298828125,2.6885172265625,20.1292298828125,2.6885172265625ZM14.4699298828125,10.3374622265625C14.4699298828125,10.3374622265625,9.6581898828125,13.0870322265625,9.6581898828125,13.0870322265625C9.6581898828125,13.0870322265625,23.0001298828125,20.8048322265625,23.0001298828125,20.8048322265625C23.0001298828125,20.8048322265625,36.3421298828125,13.0870322265625,36.3421298828125,13.0870322265625C36.3421298828125,13.0870322265625,31.5303298828125,10.3374622265625,31.5303298828125,10.3374622265625C31.5303298828125,10.3374622265625,23.9589298828125,14.7120322265625,23.9589298828125,14.7120322265625C23.3657298828125,15.0548322265625,22.6345298828125,15.0548322265625,22.0412298828125,14.7120322265625C22.0412298828125,14.7120322265625,14.4699298828125,10.3374622265625,14.4699298828125,10.3374622265625C14.4699298828125,10.3374622265625,14.4699298828125,10.3374622265625,14.4699298828125,10.3374622265625ZM27.6780298828125,8.1361122265625C27.6780298828125,8.1361122265625,23.9585298828125,6.0106622265625,23.9585298828125,6.0106622265625C23.6670298828125,5.8424322265625,23.3365298828125,5.7538622265625,23.0001298828125,5.7538622265625C22.6636298828125,5.7538622265625,22.3331298828125,5.8424322265625,22.0418298828125,6.0106422265625C22.0418298828125,6.0106422265625,22.0344298828125,6.0149122265625,22.0344298828125,6.0149122265625C22.0344298828125,6.0149122265625,18.3223298828125,8.1361122265625,18.3223298828125,8.1361122265625C18.3223298828125,8.1361122265625,23.0001298828125,10.8388622265625,23.0001298828125,10.8388622265625C23.0001298828125,10.8388622265625,27.6780298828125,8.1361122265625,27.6780298828125,8.1361122265625C27.6780298828125,8.1361122265625,27.6780298828125,8.1361122265625,27.6780298828125,8.1361122265625ZM38.3335298828125,16.363532226562498C38.3335298828125,16.363532226562498,24.9168298828125,24.1245322265625,24.9168298828125,24.1245322265625C24.9168298828125,24.1245322265625,24.9168298828125,39.4416322265625,24.9168298828125,39.4416322265625C24.9168298828125,39.4416322265625,29.7085298828125,36.7034322265625,29.7085298828125,36.7034322265625C29.7085298828125,36.7034322265625,29.7085298828125,27.9831322265625,29.7085298828125,27.9831322265625C29.7085298828125,27.2987322265625,30.0734298828125,26.6662322265625,30.6662298828125,26.3237322265625C30.6662298828125,26.3237322265625,38.3335298828125,21.8937322265625,38.3335298828125,21.8937322265625C38.3335298828125,21.8937322265625,38.3335298828125,16.363532226562498,38.3335298828125,16.363532226562498C38.3335298828125,16.363532226562498,38.3335298828125,16.363532226562498,38.3335298828125,16.363532226562498ZM38.3335298828125,26.3208322265625C38.3335298828125,26.3208322265625,33.5418298828125,29.0894322265625,33.5418298828125,29.0894322265625C33.5418298828125,29.0894322265625,33.5418298828125,34.5130322265625,33.5418298828125,34.5130322265625C33.5418298828125,34.5130322265625,37.3751298828125,32.3225322265625,37.3751298828125,32.3225322265625C37.3751298828125,32.3225322265625,37.3782298828125,32.3208322265625,37.3782298828125,32.3208322265625C37.6678298828125,32.1529322265625,37.9086298828125,31.9117322265625,38.0761298828125,31.6217322265625C38.2444298828125,31.3308322265625,38.3331298828125,31.0007322265625,38.3335298828125,30.6646322265625C38.3335298828125,30.6646322265625,38.3335298828125,26.3208322265625,38.3335298828125,26.3208322265625C38.3335298828125,26.3208322265625,38.3335298828125,26.3208322265625,38.3335298828125,26.3208322265625ZM21.0834298828125,39.4416322265625C21.0834298828125,39.4416322265625,21.0834298828125,24.1245322265625,21.0834298828125,24.1245322265625C21.0834298828125,24.1245322265625,7.6667898828125,16.363532226562498,7.6667898828125,16.363532226562498C7.6667898828125,16.363532226562498,7.6667898828125,21.8937322265625,7.6667898828125,21.8937322265625C7.6667898828125,21.8937322265625,15.3339298828125,26.3237322265625,15.3339298828125,26.3237322265625C15.9267298828125,26.6662322265625,16.2918298828125,27.2987322265625,16.2918298828125,27.9831322265625C16.2918298828125,27.9831322265625,16.2918298828125,36.7034322265625,16.2918298828125,36.7034322265625C16.2918298828125,36.7034322265625,21.0834298828125,39.4416322265625,21.0834298828125,39.4416322265625C21.0834298828125,39.4416322265625,21.0834298828125,39.4416322265625,21.0834298828125,39.4416322265625ZM12.4584598828125,34.5130322265625C12.4584598828125,34.5130322265625,12.4584598828125,29.0894322265625,12.4584598828125,29.0894322265625C12.4584598828125,29.0894322265625,7.6667898828125,26.3208322265625,7.6667898828125,26.3208322265625C7.6667898828125,26.3208322265625,7.6667898828125,30.6655322265625,7.6667898828125,30.6655322265625C7.6672698828125,31.0013322265625,7.7559898828125,31.3310322265625,7.9240598828125,31.6217322265625C8.0916798828125,31.9117322265625,8.3323698828125,32.1529322265625,8.6220898828125,32.3208322265625C8.6220898828125,32.3208322265625,8.6251198828125,32.3225322265625,8.6251198828125,32.3225322265625C8.6251198828125,32.3225322265625,12.4584598828125,34.5130322265625,12.4584598828125,34.5130322265625C12.4584598828125,34.5130322265625,12.4584598828125,34.5130322265625,12.4584598828125,34.5130322265625Z" fill-rule="evenodd" fill="#000000" fill-opacity="1"/></g></g></svg>