<svg xmlns="http://www.w3.org/2000/svg" xmlns:xlink="http://www.w3.org/1999/xlink" fill="none" version="1.1" width="45" height="45" viewBox="0 0 45 45"><defs><clipPath id="master_svg0_97_0718"><rect x="0" y="0" width="45" height="45" rx="0"/></clipPath></defs><g clip-path="url(#master_svg0_97_0718)"><g><path d="M22.5,7.5C18.5218,7.5,14.7065,9.08034,11.89341,11.89341C9.08034,14.7065,7.5,18.5218,7.5,22.5C7.5,22.5,7.5,24.375,7.5,24.375C7.5,24.375,11.25,24.375,11.25,24.375C12.74184,24.375,14.1726,24.9677,15.2275,26.0226C16.282400000000003,27.0774,16.875,28.5082,16.875,30C16.875,30,16.875,35.625,16.875,35.625C16.875,37.1169,16.282400000000003,38.5476,15.2275,39.6024C14.1726,40.6573,12.74184,41.25,11.25,41.25C11.25,41.25,9.375,41.25,9.375,41.25C7.88316,41.25,6.45242,40.6573,5.39752,39.6024C4.342631,38.5476,3.75,37.1169,3.75,35.625C3.75,35.625,3.75,22.5,3.75,22.5C3.750000111759,17.5272,5.72544,12.75806,9.24174,9.24174C12.75806,5.72544,17.5272,3.75,22.5,3.75C27.4729,3.75,32.2419,5.72544,35.7583,9.24174C39.2745,12.75806,41.25,17.5272,41.25,22.5C41.25,22.5,41.25,35.625,41.25,35.625C41.25,37.1169,40.6573,38.5476,39.6024,39.6024C38.5476,40.6573,37.1169,41.25,35.625,41.25C35.625,41.25,33.75,41.25,33.75,41.25C32.2581,41.25,30.8274,40.6573,29.7726,39.6024C28.7177,38.5476,28.125,37.1169,28.125,35.625C28.125,35.625,28.125,30,28.125,30C28.125,28.5081,28.7177,27.0774,29.7726,26.0226C30.8274,24.9677,32.2581,24.375,33.75,24.375C33.75,24.375,37.5,24.375,37.5,24.375C37.5,24.375,37.5,22.5,37.5,22.5C37.5,18.5218,35.9196,14.7065,33.106700000000004,11.89341C30.2936,9.08034,26.4782,7.5,22.5,7.5C22.5,7.5,22.5,7.5,22.5,7.5ZM37.5,28.125C37.5,28.125,33.75,28.125,33.75,28.125C33.2528,28.125,32.7757,28.3226,32.4242,28.6742C32.0726,29.0257,31.875,29.5028,31.875,30C31.875,30,31.875,35.625,31.875,35.625C31.875,36.1222,32.0726,36.5993,32.4242,36.9508C32.7757,37.3024,33.2528,37.5,33.75,37.5C33.75,37.5,35.625,37.5,35.625,37.5C36.1222,37.5,36.5993,37.3024,36.9508,36.9508C37.3024,36.5993,37.5,36.1222,37.5,35.625C37.5,35.625,37.5,28.125,37.5,28.125C37.5,28.125,37.5,28.125,37.5,28.125ZM7.5,35.625C7.5,36.1222,7.69755,36.5993,8.04917,36.9508C8.40081,37.3024,8.87771,37.5,9.375,37.5C9.375,37.5,11.25,37.5,11.25,37.5C11.74729,37.5,12.22419,37.3024,12.57583,36.9508C12.92745,36.5993,13.125,36.1222,13.125,35.625C13.125,35.625,13.125,30,13.125,30C13.125,29.5028,12.92745,29.0257,12.57583,28.6742C12.22419,28.3226,11.74729,28.125,11.25,28.125C11.25,28.125,7.5,28.125,7.5,28.125C7.5,28.125,7.5,35.625,7.5,35.625C7.5,35.625,7.5,35.625,7.5,35.625Z" fill-rule="evenodd" fill="#000000" fill-opacity="1"/></g></g></svg>