<svg xmlns="http://www.w3.org/2000/svg" xmlns:xlink="http://www.w3.org/1999/xlink" fill="none" version="1.1" width="45" height="45" viewBox="0 0 45 45"><defs><clipPath id="master_svg0_77_4875"><rect x="0" y="0" width="45" height="45" rx="0"/></clipPath></defs><g clip-path="url(#master_svg0_77_4875)"><g><path d="M21.3489,2.269965C22.0259,1.743345,22.974,1.743345,23.6511,2.269965C23.6511,2.269965,40.5261,15.395,40.5261,15.395C40.9828,15.7502,41.25,16.2964,41.25,16.875C41.25,16.875,41.25,37.5,41.25,37.5C41.25,38.9919,40.6573,40.4226,39.6024,41.4774C38.5476,42.5323,37.1169,43.125,35.625,43.125C35.625,43.125,9.375,43.125,9.375,43.125C7.88316,43.125,6.45242,42.5323,5.39752,41.4774C4.342631,40.4226,3.75,38.9919,3.75,37.5C3.75,37.5,3.75,16.875,3.75,16.875C3.75,16.2964,4.017137,15.7502,4.473861,15.395C4.473861,15.395,21.3489,2.269965,21.3489,2.269965C21.3489,2.269965,21.3489,2.269965,21.3489,2.269965ZM18.75,39.375C18.75,39.375,26.25,39.375,26.25,39.375C26.25,39.375,26.25,24.375,26.25,24.375C26.25,24.375,18.75,24.375,18.75,24.375C18.75,24.375,18.75,39.375,18.75,39.375C18.75,39.375,18.75,39.375,18.75,39.375ZM30,39.375C30,39.375,30,22.5,30,22.5C30,21.4644,29.1606,20.625,28.125,20.625C28.125,20.625,16.875,20.625,16.875,20.625C15.8395,20.625,15,21.4644,15,22.5C15,22.5,15,39.375,15,39.375C15,39.375,9.375,39.375,9.375,39.375C8.87771,39.375,8.40081,39.1774,8.04917,38.8258C7.69755,38.4743,7.5,37.9972,7.5,37.5C7.5,37.5,7.5,17.792,7.5,17.792C7.5,17.792,22.5,6.12536,22.5,6.12536C22.5,6.12536,37.5,17.792,37.5,17.792C37.5,17.792,37.5,37.5,37.5,37.5C37.5,37.9972,37.3024,38.4743,36.9508,38.8258C36.5993,39.1774,36.1222,39.375,35.625,39.375C35.625,39.375,30,39.375,30,39.375C30,39.375,30,39.375,30,39.375Z" fill-rule="evenodd" fill="#000000" fill-opacity="1"/></g></g></svg>