<svg xmlns="http://www.w3.org/2000/svg" xmlns:xlink="http://www.w3.org/1999/xlink" fill="none" version="1.1" width="45" height="45" viewBox="0 0 45 45"><defs><clipPath id="master_svg0_73_3126"><rect x="0" y="0" width="45" height="45" rx="0"/></clipPath></defs><g clip-path="url(#master_svg0_73_3126)"><g><path d="M22.5,5.625C20.5109,5.625,18.6032,6.41518,17.1967,7.82169C15.7902,9.22823,15,11.13587,15,13.125C15,13.125,15,18.75,15,18.75C15,18.75,30,18.75,30,18.75C30,18.75,30,13.125,30,13.125C30,11.13587,29.2099,9.22823,27.8032,7.82169C26.3968,6.41518,24.4892,5.625,22.5,5.625C22.5,5.625,22.5,5.625,22.5,5.625ZM33.75,18.75C33.75,18.75,33.75,13.125,33.75,13.125C33.75,10.14131,32.564800000000005,7.27984,30.4549,5.17005C28.3451,3.06026,25.4837,1.875,22.5,1.875C19.5163,1.875,16.6548,3.06026,14.545,5.17005C12.43526,7.27984,11.25,10.14131,11.25,13.125C11.25,13.125,11.25,18.75,11.25,18.75C11.25,18.75,9.375,18.75,9.375,18.75C6.268409999999999,18.75,3.75,21.2683,3.75,24.375C3.75,24.375,3.75,37.5,3.75,37.5C3.75,40.6067,6.268409999999999,43.125,9.375,43.125C9.375,43.125,35.625,43.125,35.625,43.125C38.7317,43.125,41.25,40.6067,41.25,37.5C41.25,37.5,41.25,24.375,41.25,24.375C41.25,21.2683,38.7317,18.75,35.625,18.75C35.625,18.75,33.75,18.75,33.75,18.75C33.75,18.75,33.75,18.75,33.75,18.75ZM9.375,22.5C8.33948,22.5,7.5,23.3394,7.5,24.375C7.5,24.375,7.5,37.5,7.5,37.5C7.5,38.5356,8.33948,39.375,9.375,39.375C9.375,39.375,35.625,39.375,35.625,39.375C36.6606,39.375,37.5,38.5356,37.5,37.5C37.5,37.5,37.5,24.375,37.5,24.375C37.5,23.3394,36.6606,22.5,35.625,22.5C35.625,22.5,9.375,22.5,9.375,22.5C9.375,22.5,9.375,22.5,9.375,22.5Z" fill-rule="evenodd" fill="#000000" fill-opacity="1"/></g></g></svg>