<svg xmlns="http://www.w3.org/2000/svg" xmlns:xlink="http://www.w3.org/1999/xlink" fill="none" version="1.1" width="54" height="54" viewBox="0 0 54 54"><defs><mask id="master_svg0_1_02283/1_02243" style="mask-type:alpha" maskUnits="objectBoundingBox"><g><rect x="0" y="0" width="53.846153259277344" height="53.846153259277344" rx="0" fill="#FFFFFF" fill-opacity="1"/></g></mask></defs><g><g></g><g mask="url(#master_svg0_1_02283/1_02243)"><g><path d="M37.85691896820069,9.9573598928833Q33.617918968200684,5.718319892883301,27.623018968200682,5.718319892883301Q21.628088968200686,5.718319892883301,17.389048968200683,9.9573598928833Q13.150008968200684,14.1963898928833,13.150008968200684,20.1913198928833L13.150008968200684,32.0274198928833L10.650928968200684,38.691619892883296Q10.555418968200684,38.9463198928833,10.555418968200684,39.2183198928833Q10.555418968200684,39.2920198928833,10.562638968200684,39.3653198928833Q10.569868968200684,39.4387198928833,10.584238968200683,39.5109198928833Q10.598618968200684,39.5832198928833,10.620008968200683,39.6537198928833Q10.641398968200683,39.7242198928833,10.669598968200683,39.7923198928833Q10.697798968200683,39.8604198928833,10.732538968200684,39.9254198928833Q10.767278968200683,39.9904198928833,10.808218968200684,40.0517198928833Q10.849158968200683,40.1129198928833,10.895898968200683,40.1699198928833Q10.942648968200684,40.2269198928833,10.994758968200683,40.2790198928833Q11.046868968200684,40.3311198928833,11.103828968200684,40.3778198928833Q11.160791968200684,40.4246198928833,11.222063968200684,40.4655198928833Q11.283334968200684,40.5064198928833,11.348323968200683,40.5412198928833Q11.413312968200684,40.5759198928833,11.481393968200683,40.604119892883304Q11.549474968200684,40.6323198928833,11.619991968200683,40.6537198928833Q11.690508968200684,40.6751198928833,11.762783968200683,40.689519892883304Q11.835057968200683,40.7039198928833,11.908392968200683,40.7111198928833Q11.981728668200683,40.7183198928833,12.055418968200684,40.7183198928833L43.190518968200685,40.7183198928833Q43.46251896820068,40.7183198928833,43.71721896820068,40.6228198928833Q43.786218968200686,40.5969198928833,43.85241896820068,40.5644198928833Q43.91851896820069,40.5319198928833,43.98111896820068,40.4931198928833Q44.04371896820068,40.4542198928833,44.10221896820068,40.4094198928833Q44.16081896820069,40.3646198928833,44.21461896820068,40.3143198928833Q44.26851896820068,40.2640198928833,44.31711896820068,40.2087198928833Q44.365818968200685,40.1533198928833,44.408818968200684,40.0935198928833Q44.45171896820068,40.0336198928833,44.488718968200686,39.969919892883304Q44.52561896820068,39.906119892883304,44.556118968200686,39.8390198928833Q44.58661896820068,39.771919892883304,44.61031896820069,39.7022198928833Q44.63411896820068,39.6324198928833,44.650918968200685,39.5607198928833Q44.667818968200685,39.4889198928833,44.67751896820069,39.4159198928833Q44.68721896820068,39.3428198928833,44.68971896820069,39.2692198928833Q44.692218968200685,39.1955198928833,44.68741896820068,39.1220198928833Q44.68271896820068,39.048519892883306,44.670818968200685,38.975719892883305Q44.65891896820068,38.9030198928833,44.63991896820068,38.8318198928833Q44.620918968200684,38.7606198928833,44.595018968200684,38.691619892883296L42.095918968200685,32.0274198928833L42.095918968200685,20.1913198928833Q42.095918968200685,14.196399892883301,37.85691896820069,9.9573598928833ZM19.510368968200684,12.0786798928833Q22.870718968200684,8.7183198928833,27.623018968200682,8.7183198928833Q32.375218968200684,8.7183198928833,35.73561896820068,12.0786798928833Q39.095918968200685,15.439029892883301,39.095918968200685,20.1913198928833L39.095918968200685,32.2994198928833Q39.095918968200685,32.5714198928833,39.19141896820068,32.8261198928833L41.02601896820069,37.7183198928833L14.219918968200684,37.7183198928833L16.054508968200683,32.8261198928833Q16.150008968200684,32.5714198928833,16.150008968200684,32.2994198928833L16.150008968200684,20.1913198928833Q16.150008968200684,15.439029892883301,19.510368968200684,12.0786798928833Z" fill-rule="evenodd" fill="#000000" fill-opacity="1"/></g><g><path d="M30.031510051879884,44.93184280395508L23.769350051879883,44.93184280395508L23.769350051879883,41.93184280395508L30.031510051879884,41.93184280395508L30.031510051879884,44.93184280395508Z" fill-rule="evenodd" fill="#000000" fill-opacity="1"/></g></g></g></svg>