<svg xmlns="http://www.w3.org/2000/svg" xmlns:xlink="http://www.w3.org/1999/xlink" fill="none" version="1.1" width="54" height="54" viewBox="0 0 54 54"><defs><mask id="master_svg0_77_4733/1_02277" style="mask-type:alpha" maskUnits="objectBoundingBox"><g><rect x="0" y="0" width="53.846153259277344" height="53.846153259277344" rx="0" fill="#FFFFFF" fill-opacity="1"/></g></mask></defs><g><g></g><g mask="url(#master_svg0_77_4733/1_02277)"><g><path d="M15.81476228942871,36.947392147216796Q14.837362289428711,39.0014621472168,14.837362289428711,41.2545021472168Q14.837362289428711,41.3282021472168,14.844582289428711,41.4015321472168Q14.851812289428711,41.4748621472168,14.86618228942871,41.547142147216796Q14.880562289428712,41.6194121472168,14.90195228942871,41.689932147216794Q14.92334228942871,41.760452147216796,14.95154228942871,41.8285321472168Q14.97974228942871,41.8965821472168,15.014482289428711,41.961582147216795Q15.04922228942871,42.0265821472168,15.090162289428712,42.087882147216796Q15.13110228942871,42.149082147216795,15.17784228942871,42.2060821472168Q15.224592289428712,42.2630821472168,15.27670228942871,42.315182147216795Q15.328812289428711,42.3672821472168,15.385772289428711,42.4139821472168Q15.442735289428711,42.4607821472168,15.504007289428712,42.5016821472168Q15.565278289428711,42.542682147216794,15.63026728942871,42.577382147216795Q15.69525628942871,42.612082147216796,15.76333728942871,42.640282147216794Q15.831418289428711,42.66848214721679,15.90193528942871,42.6898821472168Q15.97245228942871,42.7112821472168,16.04472728942871,42.725682147216794Q16.11700128942871,42.740082147216796,16.19033628942871,42.747282147216794Q16.263671989428712,42.7544821472168,16.33736228942871,42.7544821472168Q16.41105258942871,42.7544821472168,16.48438828942871,42.747282147216794Q16.55772328942871,42.740082147216796,16.62999728942871,42.725682147216794Q16.70227228942871,42.7112821472168,16.77278928942871,42.6898821472168Q16.84330628942871,42.66848214721679,16.91138728942871,42.640282147216794Q16.97946828942871,42.612082147216796,17.04445728942871,42.577382147216795Q17.10944628942871,42.542682147216794,17.170717289428712,42.5016821472168Q17.23198928942871,42.4607821472168,17.28895228942871,42.4139821472168Q17.34591228942871,42.3672821472168,17.39802228942871,42.315182147216795Q17.450132289428712,42.2630821472168,17.49688228942871,42.2060821472168Q17.54362228942871,42.149082147216795,17.58456228942871,42.087882147216796Q17.62550228942871,42.0265821472168,17.660242289428712,41.961582147216795Q17.69498228942871,41.8965821472168,17.72318228942871,41.8285321472168Q17.75138228942871,41.760452147216796,17.772772289428712,41.689932147216794Q17.794162289428712,41.6194121472168,17.80854228942871,41.547142147216796Q17.82291228942871,41.4748621472168,17.83014228942871,41.4015321472168Q17.83736228942871,41.3282021472168,17.83736228942871,41.2545021472168Q17.83736228942871,38.030552147216795,20.43439228942871,35.722082147216796Q23.108632289428712,33.3449821472168,26.92306228942871,33.3449821472168Q30.73756228942871,33.3449821472168,33.41176228942871,35.722082147216796Q36.00876228942871,38.030552147216795,36.00876228942871,41.2545021472168Q36.00876228942871,41.3282021472168,36.01606228942871,41.4015321472168Q36.023262289428715,41.4748621472168,36.037562289428706,41.547142147216796Q36.051962289428715,41.6194121472168,36.073362289428715,41.689932147216794Q36.094762289428715,41.760452147216796,36.12296228942871,41.8285321472168Q36.15116228942871,41.8965821472168,36.18586228942871,41.961582147216795Q36.22066228942871,42.0265821472168,36.26156228942871,42.087882147216796Q36.30256228942871,42.149082147216795,36.34926228942871,42.2060821472168Q36.39606228942871,42.2630821472168,36.44816228942871,42.315182147216795Q36.50026228942871,42.3672821472168,36.55716228942871,42.4139821472168Q36.61416228942871,42.4607821472168,36.67546228942871,42.5016821472168Q36.73666228942871,42.542682147216794,36.80166228942871,42.577382147216795Q36.86666228942871,42.612082147216796,36.93476228942871,42.640282147216794Q37.00286228942871,42.66848214721679,37.073362289428715,42.6898821472168Q37.14386228942871,42.7112821472168,37.21616228942871,42.725682147216794Q37.28846228942871,42.740082147216796,37.36176228942871,42.747282147216794Q37.435062289428714,42.7544821472168,37.50876228942871,42.7544821472168Q37.58246228942871,42.7544821472168,37.65586228942871,42.747282147216794Q37.729162289428714,42.740082147216796,37.80146228942871,42.725682147216794Q37.87366228942871,42.7112821472168,37.94426228942871,42.6898821472168Q38.01476228942871,42.66848214721679,38.08286228942871,42.640282147216794Q38.150862289428716,42.612082147216796,38.21586228942871,42.577382147216795Q38.28086228942871,42.542682147216794,38.342162289428714,42.5016821472168Q38.40346228942871,42.4607821472168,38.460362289428716,42.4139821472168Q38.51736228942871,42.3672821472168,38.569462289428714,42.315182147216795Q38.62156228942871,42.2630821472168,38.66826228942871,42.2060821472168Q38.715062289428715,42.149082147216795,38.75596228942871,42.087882147216796Q38.796962289428706,42.0265821472168,38.83166228942871,41.961582147216795Q38.86636228942871,41.8965821472168,38.89456228942871,41.8285321472168Q38.92276228942871,41.760452147216796,38.94416228942871,41.689932147216794Q38.96556228942871,41.6194121472168,38.97996228942871,41.547142147216796Q38.99436228942871,41.4748621472168,39.00156228942871,41.4015321472168Q39.00876228942871,41.3282021472168,39.00876228942871,41.2545021472168Q39.00876228942871,39.001452147216796,38.03136228942871,36.947392147216796Q37.09726228942871,34.984192147216795,35.404862289428706,33.479852147216796Q31.87816228942871,30.344982147216797,26.92306228942871,30.344982147216797Q21.968032289428713,30.344982147216797,18.441302289428712,33.479852147216796Q16.748918289428712,34.984192147216795,15.81476228942871,36.947392147216796Z" fill-rule="evenodd" fill="#000000" fill-opacity="1"/></g><g><path d="M41.41877710647583,12.42738710647583Q35.41447710647583,6.42307710647583,26.92307710647583,6.42307710647583Q18.43167710647583,6.42307710647583,12.42738710647583,12.42738710647583Q6.42307710647583,18.43167710647583,6.42307710647583,26.92307710647583Q6.42307710647583,35.41447710647583,12.42738710647583,41.41877710647583Q18.43167710647583,47.42307710647583,26.92307710647583,47.42307710647583Q35.41447710647583,47.42307710647583,41.41877710647583,41.41877710647583Q47.42307710647583,35.41447710647583,47.42307710647583,26.92307710647583Q47.42307710647583,18.43167710647583,41.41877710647583,12.42738710647583ZM14.548707106475831,14.548707106475831Q19.67437710647583,9.42307710647583,26.92307710647583,9.42307710647583Q34.17177710647583,9.42307710647583,39.29747710647583,14.548707106475831Q44.42307710647583,19.67437710647583,44.42307710647583,26.92307710647583Q44.42307710647583,34.17177710647583,39.29747710647583,39.29747710647583Q34.17177710647583,44.42307710647583,26.92307710647583,44.42307710647583Q19.67437710647583,44.42307710647583,14.548707106475831,39.29747710647583Q9.42307710647583,34.17177710647583,9.42307710647583,26.92307710647583Q9.42307710647583,19.67437710647583,14.548707106475831,14.548707106475831Z" fill-rule="evenodd" fill="#000000" fill-opacity="1"/></g><g><path d="M20.80684443786621,18.611289704589844Q18.43831443786621,20.979819704589843,18.43831443786621,24.329429704589842Q18.43831443786621,27.679029704589844,20.80684443786621,30.047559704589844Q23.17537443786621,32.41605970458984,26.524974437866213,32.41605970458984Q29.87458443786621,32.41605970458984,32.24311443786621,30.047559704589844Q34.61161443786621,27.679029704589844,34.61161443786621,24.329429704589842L34.61161443786621,17.742759704589844Q34.61161443786621,17.669069404589845,34.60441443786621,17.595733704589843Q34.597214437866214,17.522398704589843,34.58281443786621,17.450123704589842Q34.56841443786621,17.377849704589845,34.54701443786621,17.307332704589843Q34.52571443786621,17.236815704589844,34.497514437866215,17.168734704589845Q34.46931443786621,17.100653704589845,34.43451443786621,17.035664704589845Q34.39981443786621,16.970675704589844,34.358814437866215,16.909404704589843Q34.31791443786621,16.848132704589844,34.27111443786621,16.791169704589844Q34.22441443786621,16.734209704589844,34.17231443786621,16.682099704589845Q34.12021443786621,16.629989704589843,34.06321443786621,16.583239704589843Q34.00631443786621,16.536499704589843,33.94501443786621,16.495559704589844Q33.88371443786621,16.454619704589845,33.81871443786621,16.419879704589842Q33.75371443786621,16.385139704589843,33.68571443786621,16.356939704589845Q33.61761443786621,16.328739704589843,33.54711443786621,16.307349704589843Q33.476514437866214,16.285959704589843,33.40431443786621,16.271579704589843Q33.33201443786621,16.257209704589844,33.25871443786621,16.249979704589844Q33.18531443786621,16.242759704589844,33.11161443786621,16.242759704589844L26.52498443786621,16.242759704589844Q23.17537443786621,16.242759704589844,20.80684443786621,18.611289704589844ZM22.92816443786621,27.926259704589846Q21.43831443786621,26.436389704589843,21.43831443786621,24.329419704589846Q21.43831443786621,22.222459704589845,22.92816443786621,20.732609704589844Q24.418014437866212,19.242759704589844,26.52498443786621,19.242759704589844L31.61161443786621,19.242759704589844L31.61161443786621,24.329429704589842Q31.61161443786621,26.436389704589843,30.121814437866213,27.926259704589846Q28.63194443786621,29.41605970458984,26.524974437866213,29.41605970458984Q24.418014437866212,29.41605970458984,22.92816443786621,27.926259704589846Z" fill-rule="evenodd" fill="#000000" fill-opacity="1"/></g></g></g></svg>