<svg xmlns="http://www.w3.org/2000/svg" xmlns:xlink="http://www.w3.org/1999/xlink" fill="none" version="1.1" width="45" height="45" viewBox="0 0 45 45"><defs><clipPath id="master_svg0_77_3886"><rect x="0" y="0" width="45" height="45" rx="0"/></clipPath></defs><g clip-path="url(#master_svg0_77_3886)"><g><path d="M0,1.875C0,0.839466,0.839466,0,1.875,0C1.875,0,9.375,0,9.375,0C10.2687,0,11.0381,0.630722,11.2135,1.50702C11.2135,1.50702,12.7883,9.375,12.7883,9.375C12.7883,9.375,43.125,9.375,43.125,9.375C43.6838,9.375,44.2134,9.62424,44.5697,10.0548C44.9259,10.4853,45.0714,11.0523,44.9668,11.6012C44.9668,11.6012,41.9642,27.3465,41.9642,27.3465C41.7069,28.6414,41.0025,29.8046,39.9741,30.6324C38.9509,31.4561,37.6717,31.8956,36.3589,31.875C36.3589,31.875,18.1662,31.875,18.1662,31.875C16.8532,31.8956,15.5741,31.4561,14.5509,30.6324C13.523,29.8048,12.8187,28.6423,12.5612,27.3482C12.5611,27.3476,12.5614,27.3486,12.5612,27.3482C12.5612,27.3482,9.42898,11.6985,9.42898,11.6985C9.41627,11.6467,9.40571,11.5941,9.39741,11.5408C9.39741,11.5408,7.8381,3.75,7.8381,3.75C7.8381,3.75,1.875,3.75,1.875,3.75C0.839466,3.75,0,2.91052,0,1.875C0,1.875,0,1.875,0,1.875ZM13.5389,13.125C13.5389,13.125,16.2391,26.616,16.2391,26.616C16.3248,27.0476,16.5596,27.4354,16.9024,27.7112C17.2452,27.9872,17.6741,28.1338,18.1141,28.1254C18.1141,28.1254,18.15,28.125,18.15,28.125C18.15,28.125,36.375,28.125,36.375,28.125C36.375,28.125,36.411,28.1254,36.411,28.1254C36.8509,28.1338,37.2799,27.9872,37.6226,27.7112C37.9639,27.4365,38.1981,27.0512,38.2847,26.622C38.2847,26.622,40.8587,13.125,40.8587,13.125C40.8587,13.125,13.5389,13.125,13.5389,13.125C13.5389,13.125,13.5389,13.125,13.5389,13.125ZM13.125,39.375C13.125,37.3039,14.8039,35.625,16.875,35.625C18.9461,35.625,20.625,37.3039,20.625,39.375C20.625,41.4461,18.9461,43.125,16.875,43.125C14.8039,43.125,13.125,41.4461,13.125,39.375C13.125,39.375,13.125,39.375,13.125,39.375ZM33.75,39.375C33.75,37.3039,35.4289,35.625,37.5,35.625C39.5711,35.625,41.25,37.3039,41.25,39.375C41.25,41.4461,39.5711,43.125,37.5,43.125C35.4289,43.125,33.75,41.4461,33.75,39.375C33.75,39.375,33.75,39.375,33.75,39.375Z" fill-rule="evenodd" fill="#000000" fill-opacity="1"/></g></g></svg>