<svg xmlns="http://www.w3.org/2000/svg" xmlns:xlink="http://www.w3.org/1999/xlink" fill="none" version="1.1" width="45" height="45" viewBox="0 0 45 45"><defs><clipPath id="master_svg0_77_3894"><rect x="0" y="0" width="45" height="45" rx="0"/></clipPath></defs><g clip-path="url(#master_svg0_77_3894)"><g><path d="M9.315190000000001,11.9668C7.00588,14.8537,5.625,18.5156,5.625,22.5C5.625,26.4844,7.00588,30.1462,9.315190000000001,33.0332C9.315190000000001,33.0332,14.6783,27.6701,14.6783,27.6701C13.6967,26.1881,13.125,24.4108,13.125,22.5C13.125,20.5892,13.6967,18.812,14.6783,17.329900000000002C14.6783,17.329900000000002,9.315190000000001,11.9668,9.315190000000001,11.9668C9.315190000000001,11.9668,9.315190000000001,11.9668,9.315190000000001,11.9668ZM11.9668,9.315190000000001C11.9668,9.315190000000001,17.329900000000002,14.6783,17.329900000000002,14.6783C18.812,13.6967,20.5892,13.125,22.5,13.125C24.4108,13.125,26.1881,13.6967,27.6701,14.6783C27.6701,14.6783,33.0332,9.315190000000001,33.0332,9.315190000000001C30.1462,7.00588,26.4844,5.625,22.5,5.625C18.5156,5.625,14.8537,7.00588,11.9668,9.315190000000001C11.9668,9.315190000000001,11.9668,9.315190000000001,11.9668,9.315190000000001ZM35.6848,11.9668C35.6848,11.9668,30.3218,17.329900000000002,30.3218,17.329900000000002C31.3033,18.812,31.875,20.5892,31.875,22.5C31.875,24.4108,31.3033,26.1881,30.3218,27.6701C30.3218,27.6701,35.6848,33.0332,35.6848,33.0332C37.9941,30.1462,39.375,26.4844,39.375,22.5C39.375,18.5156,37.9941,14.8537,35.6848,11.9668C35.6848,11.9668,35.6848,11.9668,35.6848,11.9668ZM33.0332,35.6848C33.0332,35.6848,27.6701,30.3218,27.6701,30.3218C26.1881,31.3033,24.4108,31.875,22.5,31.875C20.5892,31.875,18.812,31.3033,17.329900000000002,30.3218C17.329900000000002,30.3218,11.9668,35.6848,11.9668,35.6848C14.8537,37.9941,18.5156,39.375,22.5,39.375C26.4844,39.375,30.1462,37.9941,33.0332,35.6848C33.0332,35.6848,33.0332,35.6848,33.0332,35.6848ZM1.875,22.5C1.875,11.10913,11.10913,1.875,22.5,1.875C33.8908,1.875,43.125,11.10913,43.125,22.5C43.125,33.8908,33.8908,43.125,22.5,43.125C11.10913,43.125,1.875,33.8908,1.875,22.5C1.875,22.5,1.875,22.5,1.875,22.5ZM22.5,16.875C19.3934,16.875,16.875,19.3934,16.875,22.5C16.875,25.6067,19.3934,28.125,22.5,28.125C25.6067,28.125,28.125,25.6067,28.125,22.5C28.125,19.3934,25.6067,16.875,22.5,16.875C22.5,16.875,22.5,16.875,22.5,16.875Z" fill-rule="evenodd" fill="#000000" fill-opacity="1"/></g></g></svg>