<svg xmlns="http://www.w3.org/2000/svg" xmlns:xlink="http://www.w3.org/1999/xlink" fill="none" version="1.1" width="40" height="40" viewBox="0 0 40 40"><defs><clipPath id="master_svg0_77_5212"><rect x="40" y="40" width="40" height="40" rx="0"/></clipPath></defs><g transform="matrix(0,-1,-1,0,80,80)" clip-path="url(#master_svg0_77_5212)"><g><path d="M58.8214740234375,53.8215290234375C59.472374023437496,53.1706560234375,60.5276740234375,53.1706560234375,61.1785740234375,53.8215290234375C61.1785740234375,53.8215290234375,71.1785740234375,63.8214740234375,71.1785740234375,63.8214740234375C71.8293740234375,64.4723740234375,71.8293740234375,65.5276740234375,71.1785740234375,66.1785740234375C70.5276740234375,66.8293740234375,69.4723740234375,66.8293740234375,68.8215740234375,66.1785740234375C68.8215740234375,66.1785740234375,60.0000740234375,57.3570540234375,60.0000740234375,57.3570540234375C60.0000740234375,57.3570540234375,51.1785540234375,66.1785740234375,51.1785540234375,66.1785740234375C50.5276740234375,66.8293740234375,49.4724040234375,66.8293740234375,48.8215290234375,66.1785740234375C48.1706560234375,65.5276740234375,48.1706560234375,64.4723740234375,48.8215290234375,63.8214740234375C48.8215290234375,63.8214740234375,58.8214740234375,53.8215290234375,58.8214740234375,53.8215290234375C58.8214740234375,53.8215290234375,58.8214740234375,53.8215290234375,58.8214740234375,53.8215290234375Z" fill-rule="evenodd" fill="#000000" fill-opacity="1"/></g></g></svg>