<svg xmlns="http://www.w3.org/2000/svg" xmlns:xlink="http://www.w3.org/1999/xlink" fill="none" version="1.1" width="44" height="44" viewBox="0 0 44 44"><g><g style="opacity:0;"><rect x="0" y="0" width="44" height="44" rx="0" fill="#333333" fill-opacity="1"/></g><g><path d="M19.71462,34C20.14293,34,20.57123,33.8579,20.900280000000002,33.5737L33.5142,22.50295C34.1619,21.92993,34.1619,20.999345,33.5142,20.426326C32.8613,19.857891,31.7958,19.857891,31.1481,20.426326L19.71985,30.461L14.85185,26.18861C14.19896,25.62017,13.13343,25.62017,12.485755,26.18861C11.838082,26.76162,11.838082,27.69679,12.485755,28.265230000000003L18.53419,33.5737C18.85802,33.8579,19.28632,34,19.71462,34Z" fill="#333333" fill-opacity="1"/></g><g><path d="M34.6325,4.40144C38.6921,4.40144,42,7.66567,42,11.68244L42,34.719C42,35.8358,41.7429,36.8951,41.287,37.8394C40.574,39.4116,39.279,40.6675,37.6784,41.3481C36.7472,41.7651,35.7141,42,34.6276,42L9.37238,42C8.28592,42,7.25282,41.7699,6.32157,41.3481C4.71614,40.6675,3.42597,39.4068,2.712987,37.8394C2.257063,36.8951,2,35.8358,2,34.719L2,11.68244C2,7.67046,5.30302,4.40144,9.36753,4.40144L10.74015,4.40144L10.74015,3.52427C10.74015,2.680647,11.43373,2,12.2825,2C13.1313,2,13.8249,2.68544,13.8249,3.52427L13.8249,4.40144L30.1702,4.40144L30.1702,3.52427C30.1702,2.68544,30.8638,2,31.7126,2C32.5614,2,33.254999999999995,2.68544,33.254999999999995,3.52427L33.254999999999995,4.40144L34.6325,4.40144ZM12.2876,10.80516C13.1364,10.80516,13.83,10.12452,13.83,9.280899999999999L13.83,7.44507L30.1753,7.44507L30.1753,9.280899999999999C30.1753,10.11972,30.8689,10.80516,31.7177,10.80516C32.566500000000005,10.80516,33.2601,10.11972,33.2601,9.280899999999999L33.2601,7.44507L34.6327,7.44507C36.9948,7.44507,38.9203,9.34321,38.9203,11.68234L38.9203,14.9562L5.089840000000001,14.9562L5.089840000000001,11.68234C5.089840000000001,9.347999999999999,7.01054,7.44507,9.37746,7.44507L10.75008,7.44507L10.75008,9.280899999999999C10.75008,10.12452,11.43882,10.80516,12.2876,10.80516ZM38.9155,18.0049L38.9155,34.7191C38.9155,37.0534,36.9948,38.9564,34.6279,38.9564L9.37746,38.9564C7.01539,38.9564,5.089840000000001,37.0582,5.089840000000001,34.7191L5.089840000000001,18.0049L38.9155,18.0049Z" fill-rule="evenodd" fill="#333333" fill-opacity="1"/></g></g></svg>