<svg xmlns="http://www.w3.org/2000/svg" xmlns:xlink="http://www.w3.org/1999/xlink" fill="none" version="1.1" width="78" height="55" viewBox="0 0 78 55"><g><path d="M27.24,13.56L23.72,19.64L38.16,19.64L37.64,23.44L21.52,23.44L20.64,24.96L35.52,24.96L34.56,31.8L28.76,36.04L36.48,42.36L28.28,42.36L24.36,39.2L20,42.36L11.8,42.36L20.48,36.08L16.24,32.64L10.64,42.36L3.04,42.36L13.92,23.44L6.48,23.44L7,19.64L8.96,16.16L8.04,15.08L16.4,15.08L13.84,19.64L16.12,19.64L19.04,14.6L18.12,13.56L27.24,13.56ZM37.56,18.48L30.72,18.48L29.8,14.32L36.64,14.32L37.56,18.48ZM18.88,28L18.24,29.16L22.04,29.16L21.88,30.36L24.88,32.84L28.32,30.36L28.64,28L18.88,28ZM44.88,24.64L45.84,17.92L43.24,17.92L43.72,14.28L55.24,14.28L54.76,17.92L52.12,17.92L51.16,24.64L53.52,24.64L52.96,28.68L50.6,28.68L49.56,36L52.68,35.4L52.16,39.28L39.72,41.56L40.24,37.76L43.08,37.24L44.28,28.68L41.6,28.68L42.16,24.64L44.88,24.64ZM56.6,31.8L53.96,31.8L56.4,14.32L75.04,14.32L72.6,31.8L66.88,31.8L68.84,17.72L61.6,17.72L61.24,20.36L56.6,31.8ZM68.24,19.64L58.96,42.36L53.12,42.36L62.4,19.64L68.24,19.64ZM62,42.36L64.12,32.84L70,32.84L68.84,38.2L71.8,38.2L73.4,36.76L72.64,42.36L62,42.36Z" fill="#333333" fill-opacity="1"/></g></svg>