<svg xmlns="http://www.w3.org/2000/svg" xmlns:xlink="http://www.w3.org/1999/xlink" fill="none" version="1.1" width="45" height="45" viewBox="0 0 45 45"><defs><clipPath id="master_svg0_77_3885"><rect x="0" y="0" width="45" height="45" rx="0"/></clipPath></defs><g clip-path="url(#master_svg0_77_3885)"><g><path d="M18.6725,43.3524C19.7274,44.4073,21.1583,45,22.65,45L22.6556,45C24.1474,45,25.5782,44.4073,26.6331,43.3524C27.6879,42.2976,28.2806,40.8668,28.2806,39.375L28.2806,39.0563C28.2816,38.8185,28.3519,38.5862,28.4831,38.388C28.6146,38.1898,28.8008,38.0342,29.0194,37.9406L29.0381,37.9406C29.2598,37.8428,29.5054,37.8133,29.7439,37.8557C29.9822,37.8981,30.2027,38.0106,30.3769,38.1787L30.48,38.2819C31.0026,38.8044,31.6228,39.219,32.3055,39.5019C32.9882,39.7849,33.72,39.9306,34.4589,39.9306C35.1981,39.9308,35.9299,39.7852,36.6126,39.5025C37.2954,39.2197,37.9159,38.8054,38.4384,38.2828C38.961,37.7603,39.3756,37.14,39.6585,36.4573C39.9414,35.7746,40.0871,35.0428,40.0871,34.3039C40.0873,33.5648,39.9418,32.8329,39.6591,32.1502C39.3763,31.4674,38.9619,30.8469,38.4394,30.3244L38.3363,30.2213C38.1681,30.0471,38.0556,29.8266,38.0132,29.5883C37.9708,29.3498,38.0003,29.1041,38.0981,28.8825L38.0981,28.8638C38.1913,28.6464,38.3456,28.4608,38.5423,28.3296C38.7392,28.1985,38.9698,28.1274,39.2062,28.125L39.375,28.125C40.8668,28.125,42.2976,27.5323,43.3524,26.4774C44.4073,25.4226,45,23.9918,45,22.5C45,21.0082,44.4073,19.5774,43.3524,18.5225C42.2976,17.4676,40.8668,16.875,39.375,16.875L39.0638,16.875C38.8654,16.8737,38.6704,16.824,38.4954,16.7302C38.3207,16.6365,38.1714,16.5014,38.0606,16.3369C38.0338,16.208,37.9937,16.0823,37.9406,15.9619C37.8428,15.7403,37.8133,15.4946,37.8557,15.2562C37.8981,15.0178,38.0106,14.7973,38.1787,14.6231L38.2819,14.52C38.8044,13.9975,39.219,13.3772,39.5019,12.6945C39.7849,12.0117,39.9306,11.28,39.9306,10.541C39.9308,9.80197,39.7852,9.07018,39.5025,8.38738C39.2197,7.7046,38.8054,7.08418,38.2828,6.56156C37.7603,6.03894,37.14,5.62436,36.4573,5.34146C35.7746,5.05858,35.0428,4.91293,34.3039,4.91286C33.5648,4.91276,32.8329,5.05823,32.1502,5.34096C31.4674,5.62369,30.8469,6.03814,30.3244,6.56063L30.2213,6.66375C30.0471,6.83196,29.8266,6.94446,29.5883,6.98687C29.3498,7.02928,29.1041,6.99969,28.8825,6.90188L28.8638,6.90188C28.6464,6.80874,28.4608,6.65439,28.3296,6.45765C28.1985,6.26089,28.1274,6.03021,28.125,5.79375L28.125,5.625C28.125,4.13316,27.5323,2.70242,26.4774,1.64752C25.4226,0.592631,23.9918,0,22.5,0C21.0082,0,19.5774,0.592631,18.5225,1.64752C17.4676,2.70242,16.875,4.13316,16.875,5.625L16.875,5.93625C16.8743,6.13412,16.8255,6.32886,16.7327,6.50362C16.64,6.67841,16.506,6.82796,16.3425,6.93937C16.2136,6.96611,16.0879,7.00633,15.9675,7.05938C15.7459,7.15719,15.5003,7.18678,15.2618,7.14437C15.0234,7.10196,14.803,6.98948,14.6287,6.82125L14.5256,6.71812C13.4704,5.66214,12.0389,5.06861,10.5461,5.06809C9.05321,5.06756,7.62129,5.66008,6.56531,6.71531C5.50933,7.77054,4.9158,9.20203,4.91528,10.6949C4.91475,12.1877,5.50727,13.6196,6.5625,14.6756L6.67313,14.7769C6.84135,14.9511,6.95383,15.1715,6.99624,15.41C7.03866,15.6484,7.00907,15.8941,6.91125,16.1156C6.89499,16.1519,6.87999,16.1887,6.86625,16.2262C6.78276,16.453,6.63371,16.6499,6.43808,16.7918C6.24244,16.9337,6.00902,17.0142,5.7675,17.0231L5.625,17.0231C4.13316,17.0231,2.70242,17.6158,1.64752,18.6707C0.592631,19.7256,0,21.1564,0,22.6481C0,24.1401,0.592631,25.5707,1.64752,26.6256C2.70242,27.6804,4.13316,28.2731,5.625,28.2731L5.95125,28.2731C6.189,28.2741,6.42128,28.3444,6.61952,28.4756C6.81774,28.6071,6.97324,28.7932,7.06687,29.0119L7.06687,29.0306C7.16469,29.2523,7.19428,29.4979,7.15187,29.7364C7.10946,29.9747,6.99696,30.1952,6.82875,30.3694L6.72563,30.4725C5.67015,31.5278,5.07709,32.9589,5.07692,34.4514C5.07673,35.9439,5.66946,37.3755,6.72469,38.4309C7.77992,39.4864,9.21122,40.0794,10.7037,40.0796C12.1962,40.0798,13.6277,39.4871,14.6831,38.4319L14.7863,38.3288C14.9605,38.1606,15.1809,38.0481,15.4193,38.0057C15.6578,37.9633,15.9035,37.9928,16.125,38.0906L16.2281,38.1337C16.4549,38.2172,16.6518,38.3662,16.7937,38.562C16.9356,38.7576,17.0161,38.991,17.025,39.2325L17.025,39.375C17.025,40.8668,17.6176,42.2976,18.6725,43.3524ZM19.8606,36.4149C19.293,35.6089,18.4985,34.9899,17.5781,34.6369L17.5763,34.6369C16.6725,34.251,15.6746,34.1417,14.7087,34.323C13.7428,34.5041,12.8524,34.9676,12.15,35.655L12.0225,35.7825C11.8482,35.9567,11.6412,36.0949,11.4135,36.1892C11.1858,36.2833,10.9417,36.3319,10.6953,36.3317C10.4488,36.3317,10.2048,36.2829,9.97714,36.1886C9.74947,36.0941,9.54264,35.9559,9.36844,35.7816C9.19423,35.6072,9.05606,35.4004,8.96183,35.1726C8.86761,34.9449,8.81914,34.7008,8.81923,34.4543C8.81932,34.2079,8.86794,33.9639,8.96235,33.7361C9.05674,33.5085,9.19504,33.3017,9.36938,33.1275L9.49687,33C10.1849,32.2991,10.6507,31.4106,10.836,30.4461C11.0212,29.4814,10.9177,28.4837,10.5382,27.5777C10.1588,26.6717,9.52048,25.8979,8.70317,25.3532C7.88586,24.8085,6.92595,24.5171,5.94375,24.5156L5.625,24.5156C5.12771,24.5156,4.65081,24.318,4.29917,23.9664C3.94755,23.6149,3.75,23.1379,3.75,22.6406C3.75,22.1434,3.94755,21.6664,4.29917,21.3148C4.65081,20.9632,5.12771,20.7656,5.625,20.7656L5.83875,20.7656C6.82431,20.7433,7.78091,20.4283,8.58692,19.8606C9.39291,19.293,10.0118,18.4985,10.365,17.5781C10.7509,16.6744,10.8602,15.6764,10.6789,14.7106C10.4977,13.7447,10.0342,12.8543,9.34688,12.1519L9.21937,12.0244C8.86804,11.6723,8.67097,11.1951,8.6715,10.6977C8.67203,10.2003,8.87012,9.72353,9.22219,9.37219C9.57426,9.02085,10.0515,8.82379,10.5489,8.82431C11.0462,8.82484,11.523,9.02293,11.8744,9.375L11.985,9.48188L12,9.49687C12.6622,10.145,13.4925,10.595,14.397,10.7962C15.3015,10.9973,16.2443,10.9415,17.1187,10.635C17.2891,10.6129,17.4557,10.5675,17.6138,10.5C18.5058,10.1176,19.2664,9.4824,19.8015,8.6727C20.3366,7.863,20.6229,6.91431,20.625,5.94375L20.625,5.625C20.625,5.12771,20.8226,4.65081,21.1742,4.29917C21.5257,3.94755,22.0028,3.75,22.5,3.75C22.9972,3.75,23.4743,3.94755,23.8258,4.29917C24.1774,4.65081,24.375,5.12771,24.375,5.625L24.375,5.80125C24.3797,6.78092,24.6728,7.73749,25.2176,8.55171C25.7625,9.36591,26.535,10.0017,27.4387,10.3798C28.3425,10.7579,29.3376,10.8616,30.2998,10.6779C31.2621,10.4942,32.1491,10.0313,32.85,9.34688L32.9775,9.21937C33.1513,9.04521,33.3577,8.90694,33.585,8.8125C33.8126,8.71811,34.0568,8.66953,34.3031,8.66953C34.5495,8.66953,34.7936,8.71811,35.0212,8.8125C35.3066,8.93027,35.5584,9.11666,35.7544,9.35512C35.9503,9.59357,36.0844,9.87673,36.1448,10.1795C36.2049,10.4822,36.1896,10.7951,36.0999,11.0904C36.0103,11.3858,35.8491,11.6544,35.6306,11.8725L35.5031,12C34.8549,12.6622,34.4049,13.4925,34.2038,14.397C34.0028,15.3015,34.0586,16.2443,34.365,17.1187C34.3871,17.2891,34.4325,17.4557,34.5,17.6138C34.8823,18.5058,35.5176,19.2664,36.3274,19.8015C37.137,20.3366,38.0858,20.6229,39.0563,20.625L39.375,20.625C39.8722,20.625,40.3493,20.8226,40.7008,21.1742C41.0524,21.5257,41.25,22.0028,41.25,22.5C41.25,22.9972,41.0524,23.4743,40.7008,23.8258C40.3493,24.1774,39.8722,24.375,39.375,24.375L39.1987,24.375C38.2194,24.3801,37.2634,24.6733,36.4494,25.218C35.6357,25.7627,35.0002,26.535,34.6221,27.4384C34.2441,28.3417,34.1404,29.3364,34.3236,30.2983C34.5069,31.2604,34.9693,32.1471,35.6531,32.8481L35.7825,32.9775C35.9567,33.1519,36.0949,33.3587,36.1892,33.5865C36.2833,33.8143,36.3319,34.0583,36.3317,34.3048C36.3317,34.5512,36.2829,34.7951,36.1886,35.0229C36.0941,35.2506,35.9559,35.4574,35.7816,35.6316C35.6072,35.8057,35.4004,35.9439,35.1726,36.0382C34.9449,36.1324,34.7008,36.1809,34.4543,36.1808C34.2079,36.1808,33.9639,36.132,33.7361,36.0377C33.5085,35.9432,33.3017,35.805,33.1275,35.6306L33,35.5031C32.2991,34.8152,31.4106,34.3492,30.4461,34.164C29.4814,33.9787,28.4837,34.0823,27.5777,34.4618C26.6717,34.8411,25.8979,35.4795,25.3532,36.2968C24.8085,37.1141,24.5171,38.0741,24.5156,39.0563L24.5156,39.375C24.5156,39.8722,24.318,40.3493,23.9664,40.7008C23.6149,41.0524,23.1379,41.25,22.6406,41.25C22.1434,41.25,21.6664,41.0524,21.3148,40.7008C20.9632,40.3493,20.7656,39.8722,20.7656,39.375L20.7656,39.1631C20.7433,38.1776,20.4283,37.221,19.8606,36.4149ZM18.3332,28.7361C19.5666,29.5601,21.0167,30,22.5,30C24.4892,30,26.3968,29.2099,27.8032,27.8032C29.2099,26.3968,30,24.4892,30,22.5C30,21.0167,29.5601,19.5666,28.7361,18.3332C27.912,17.0998,26.7405,16.1386,25.3701,15.5709C23.9996,15.0032,22.4917,14.8547,21.0367,15.1441C19.5819,15.4335,18.2456,16.1478,17.1967,17.1967C16.1478,18.2456,15.4335,19.5819,15.1441,21.0367C14.8547,22.4917,15.0032,23.9996,15.5709,25.3701C16.1386,26.7405,17.0998,27.912,18.3332,28.7361ZM20.4167,19.3821C21.0334,18.9699,21.7582,18.75,22.5,18.75C23.4945,18.75,24.4483,19.1451,25.1516,19.8484C25.8549,20.5517,26.25,21.5055,26.25,22.5C26.25,23.2418,26.0301,23.9666,25.6179,24.5833C25.206,25.2,24.6203,25.6807,23.9351,25.9646C23.2498,26.2483,22.4959,26.3226,21.7684,26.178C21.0411,26.0333,20.3728,25.6761,19.8484,25.1516C19.3239,24.6272,18.9667,23.9589,18.822,23.2316C18.6774,22.5041,18.7517,21.7502,19.0354,21.0649C19.3193,20.3797,19.8,19.794,20.4167,19.3821Z" fill-rule="evenodd" fill="#000000" fill-opacity="1"/></g></g></svg>