<svg xmlns="http://www.w3.org/2000/svg" xmlns:xlink="http://www.w3.org/1999/xlink" fill="none" version="1.1" width="45" height="45" viewBox="0 0 45 45"><defs><clipPath id="master_svg0_77_5450"><rect x="0" y="45" width="45" height="45" rx="0"/></clipPath></defs><g transform="matrix(0,-1,1,0,-45,45)" clip-path="url(#master_svg0_77_5450)"><g><path d="M9.375,52.5C8.87771,52.5,8.40081,52.69755,8.04917,53.049170000000004C7.69755,53.40081,7.5,53.87771,7.5,54.375C7.5,54.375,7.5,80.625,7.5,80.625C7.5,81.12219999999999,7.69755,81.5993,8.04917,81.9508C8.40081,82.3024,8.87771,82.5,9.375,82.5C9.375,82.5,16.875,82.5,16.875,82.5C17.9105,82.5,18.75,83.3394,18.75,84.375C18.75,85.4106,17.9105,86.25,16.875,86.25C16.875,86.25,9.375,86.25,9.375,86.25C7.88316,86.25,6.45242,85.65729999999999,5.39752,84.6024C4.342631,83.5476,3.75,82.1169,3.75,80.625C3.75,80.625,3.75,54.375,3.75,54.375C3.75,52.883160000000004,4.342631,51.452420000000004,5.39752,50.39752C6.45242,49.342631,7.88316,48.75,9.375,48.75C9.375,48.75,16.875,48.75,16.875,48.75C17.9105,48.75,18.75,49.589466,18.75,50.625C18.75,51.66052,17.9105,52.5,16.875,52.5C16.875,52.5,9.375,52.5,9.375,52.5C9.375,52.5,9.375,52.5,9.375,52.5ZM28.6742,56.799170000000004C29.4064,56.06694,30.5936,56.06694,31.3258,56.799170000000004C31.3258,56.799170000000004,40.7008,66.1742,40.7008,66.1742C41.433,66.9064,41.433,68.0936,40.7008,68.8258C40.7008,68.8258,31.3258,78.2008,31.3258,78.2008C30.5936,78.93299999999999,29.4064,78.93299999999999,28.6742,78.2008C27.942,77.4686,27.942,76.2814,28.6742,75.5492C28.6742,75.5492,34.8484,69.375,34.8484,69.375C34.8484,69.375,16.875,69.375,16.875,69.375C15.8395,69.375,15,68.5356,15,67.5C15,66.4645,15.8395,65.625,16.875,65.625C16.875,65.625,34.8484,65.625,34.8484,65.625C34.8484,65.625,28.6742,59.4508,28.6742,59.4508C27.942,58.71859,27.942,57.53141,28.6742,56.799170000000004C28.6742,56.799170000000004,28.6742,56.799170000000004,28.6742,56.799170000000004Z" fill-rule="evenodd" fill="#000000" fill-opacity="1"/></g></g></svg>