<svg xmlns="http://www.w3.org/2000/svg" xmlns:xlink="http://www.w3.org/1999/xlink" fill="none" version="1.1" width="269.04248046875" height="276.30596923828125" viewBox="0 0 269.04248046875 276.30596923828125"><g transform="matrix(-1,-5.400848479553133e-8,5.400848479553133e-8,1,538.0849609374992,0.00001453057671574852)"><g><path d="M338.47178046875,10.774463979492188C340.79418046875,13.074603979492187,343.24118046875003,15.239403979492188,345.96278046875,17.049303979492187C359.84538046875,26.283003979492186,401.15048046875,48.50080397949219,466.66248046875,39.42070397949219C548.51548046875,28.075303979492187,536.5074804687499,110.37470397949218,524.72948046875,132.30970397949218C512.95148046875,154.24370397949218,469.63348046875,194.45170397949218,465.99548046875,214.5977039794922C462.35748046875,234.7447039794922,477.92548046875004,289.77070397949217,441.44648046875,273.25870397949217C404.96848046875,256.74670397949217,383.89548046875,218.0727039794922,336.01458046875,222.5687039794922C288.13358046875,227.0627039794922,254.29968046875,205.84570397949219,275.49478046875,167.9377039794922C296.68988046875,130.02970397949218,322.03018046875,105.5677039794922,289.68618046875,63.342703979492185C258.24018046875,22.29230397949219,311.20788046875,-16.226896020507812,338.47178046875,10.774463979492188C338.47178046875,10.774463979492188,338.47178046875,10.774463979492188,338.47178046875,10.774463979492188Z" fill="#DEE9FF" fill-opacity="1"/></g><g><g><path d="M421.5277920981445,53.30259978027344C420.92081509814454,52.691399780273436,420.5735496981445,51.86929978027344,420.5586154591445,51.00799978027344C420.54368119814455,50.14679978027344,420.8622210981445,49.31309978027343,421.4476430981445,48.681299780273434C421.4476430981445,48.681299780273434,443.04531309814456,25.369969780273436,443.04531309814456,25.369969780273436C443.3514130981445,25.03978378027344,443.72091309814454,24.774866780273438,444.1318130981445,24.59114878027344C444.54271309814453,24.40743278027344,444.98651309814454,24.30870493027344,445.4366130981445,24.300901547273437C445.8867130981445,24.293098160273438,446.33371309814453,24.37638408027344,446.7507130981445,24.54574578027344C447.16771309814453,24.71510778027344,447.5462130981445,24.967047780273436,447.86331309814454,25.286426780273437C447.86331309814454,25.286426780273437,449.7278130981445,27.163949780273438,449.7278130981445,27.163949780273438C450.04491309814455,27.483379780273438,450.2943130981445,27.863639780273438,450.46071309814454,28.28186978027344C450.6272130981445,28.70011978027344,450.7074130981445,29.147679780273435,450.6963130981445,29.597689780273438C450.6854130981445,30.047689780273437,450.58361309814455,30.490839780273436,450.39701309814455,30.900469780273436C450.2103130981445,31.310109780273436,449.9429130981445,31.677769780273437,449.6105130981445,31.98136978027344C449.6105130981445,31.98136978027344,426.14882309814453,53.41519978027344,426.14882309814453,53.41519978027344C425.5128830981445,53.996199780273436,424.67691309814455,54.30899978027344,423.8157030981445,54.28809978027344C422.9544830981445,54.26719978027344,422.13472309814455,53.91399978027344,421.5277920981445,53.30259978027344C421.5277920981445,53.30259978027344,421.5277920981445,53.30259978027344,421.5277920981445,53.30259978027344C421.5277920981445,53.30259978027344,421.5277920981445,53.30259978027344,421.5277920981445,53.30259978027344Z" fill="#418DF9" fill-opacity="1"/></g><g><path d="M407.8570192700195,45.35673146972656C407.3406572700195,45.12783146972656,406.9327372700195,44.70823146972656,406.7185132700195,44.18573146972656C406.50429037001953,43.663131469726565,406.50033987001956,43.07783146972656,406.70750827001956,42.552431469726564C406.70750827001956,42.552431469726564,414.35090927001954,23.167681469726563,414.35090927001954,23.167681469726563C414.45917927001955,22.893111469726563,414.62186927001954,22.64326946972656,414.8291692700195,22.43318046972656C415.0364792700195,22.223092469726563,415.2841392700195,22.057096469726563,415.5572392700195,21.94516546972656C415.8303392700195,21.833234569726564,416.1232492700195,21.77768144972656,416.41837927001956,21.781849815726563C416.7135392700195,21.786018169726564,417.0047392700195,21.849819669726564,417.27453927001955,21.969419469726564C417.27453927001955,21.969419469726564,418.86063927001953,22.672499469726564,418.86063927001953,22.672499469726564C419.1304392700195,22.79209146972656,419.3733392700195,22.965011469726562,419.57463927001953,23.180861469726562C419.77593927001953,23.39673146972656,419.9315392700195,23.651061469726564,420.0319392700195,23.928581469726563C420.1324392700195,24.206091469726562,420.1757392700195,24.50107146972656,420.15933927001953,24.795761469726564C420.1428392700195,25.090451469726563,420.06693927001953,25.378771469726562,419.93623927001954,25.643391469726563C419.93623927001954,25.643391469726563,410.7073492700195,44.325131469726564,410.7073492700195,44.325131469726564C410.4571692700195,44.83163146972656,410.0208392700195,45.22183146972657,409.48961927001955,45.41403146972657C408.9583992700195,45.60633146972656,408.3734292700195,45.58573146972656,407.8570192700195,45.35673146972656C407.8570192700195,45.35673146972656,407.8570192700195,45.35673146972656,407.8570192700195,45.35673146972656Z" fill="#418DF9" fill-opacity="1"/></g><g><path d="M393.94840177001953,48.524915258789065C392.1869017700195,48.842115258789065,390.4197417700195,47.33071525878906,389.94157177001955,45.09881525878906C389.94157177001955,45.09881525878906,381.4645507700195,5.468545258789063,381.4645507700195,5.468545258789063C380.9587877700195,3.1001852587890624,382.09278577001953,0.8476792587890625,383.9614217700195,0.5108812587890625C383.9614217700195,0.5108812587890625,386.5654617700195,0.0421593587890625,386.5654617700195,0.0421593587890625C388.43392177001954,-0.2942607412109375,390.28347177001956,1.4218652587890626,390.6344417700195,3.8174352587890623C390.6344417700195,3.8174352587890623,396.50810177001955,43.916215258789066,396.50810177001955,43.916215258789066C396.8389017700195,46.17531525878906,395.70990177001954,48.20781525878906,393.94840177001953,48.524915258789065C393.94840177001953,48.524915258789065,393.94840177001953,48.524915258789065,393.94840177001953,48.524915258789065Z" fill="#418DF9" fill-opacity="1"/></g><g><path d="M530.9652830200196,85.82107297363281C530.9652830200196,85.82107297363281,493.5782830200195,81.00157297363282,493.5782830200195,81.00157297363282C492.9492830200195,80.9343729736328,492.3132830200195,81.06077297363281,491.7582830200195,81.36377297363282C491.20228302001954,81.66677297363282,490.7512830200195,82.13207297363282,490.4682830200195,82.69747297363281C490.4682830200195,82.69747297363281,480.5262830200195,102.32687297363282,480.5262830200195,102.32687297363282C480.5262830200195,102.32687297363282,438.91128302001954,185.55467297363282,438.91128302001954,185.55467297363282C438.4682830200195,186.4336729736328,437.7272830200195,187.12667297363282,436.82128302001956,187.50867297363283C435.9142830200195,187.8916729736328,434.9012830200195,187.9376729736328,433.9632830200195,187.6406729736328C433.9632830200195,187.6406729736328,321.0078830200195,151.58567297363282,321.0078830200195,151.58567297363282C320.69638302001954,151.4863729736328,320.36578302001953,151.46217297363282,320.04308302001954,151.51547297363282C319.7202830200195,151.5687729736328,319.41488302001954,151.69797297363283,319.15198302001954,151.8923729736328C318.8889830200195,152.08677297363283,318.67578302001954,152.34087297363283,318.5302830200195,152.6335729736328C318.38458302001953,152.9263729736328,318.31048302001955,153.2496729736328,318.3141830200195,153.5766729736328C318.3141830200195,153.5766729736328,318.36598302001954,158.2676729736328,318.36598302001954,158.2676729736328C318.3721830200195,158.91967297363283,318.5841830200195,159.5526729736328,318.9715830200195,160.07767297363282C319.3588830200195,160.60267297363282,319.90198302001954,160.99167297363283,320.52338302001954,161.1896729736328C320.52338302001954,161.1896729736328,440.0322830200195,199.33467297363282,440.0322830200195,199.33467297363282C441.36428302001957,199.7596729736328,442.56028302001954,200.53067297363282,443.50028302001954,201.56567297363281C444.4382830200195,202.60267297363282,445.0882830200195,203.8686729736328,445.37928302001956,205.2366729736328C445.37928302001956,205.2366729736328,445.41828302001954,205.4226729736328,445.41828302001954,205.4226729736328C446.4582830200195,211.13367297363283,440.83128302001955,215.82167297363281,435.28628302001954,214.13867297363282C435.28628302001954,214.13867297363282,304.24005302001956,172.2556729736328,304.24005302001956,172.2556729736328C303.5678530200195,172.0416729736328,302.9888080200195,171.60467297363283,302.5987480200195,171.0176729736328C302.2086880200195,170.42967297363282,302.03100032001953,169.72667297363282,302.0950960200195,169.0236729736328C302.0950960200195,169.0236729736328,312.35098302001956,57.028512973632814,312.35098302001956,57.028512973632814C312.4025830200195,56.451062973632816,312.57498302001954,55.89092297363281,312.85708302001956,55.384442973632815C313.1391830200195,54.87796297363281,313.5245830200195,54.436462973632814,313.9883830200195,54.088617973632815C314.4521830200195,53.74076797363281,314.98398302001954,53.49433697363281,315.54918302001954,53.36533297363281C316.1142830200195,53.236328873632814,316.70038302001956,53.22763367363281,317.26908302001954,53.33980497363281C317.26908302001954,53.33980497363281,474.26028302001953,84.05097297363281,474.26028302001953,84.05097297363281C474.26028302001953,84.05097297363281,484.3712830200195,63.95577297363281,484.3712830200195,63.95577297363281C484.66328302001955,63.38777297363281,485.1222830200195,62.92313297363281,485.6862830200196,62.624432973632814C486.25028302001954,62.32573297363281,486.89328302001957,62.20738297363281,487.5272830200195,62.28535297363281C487.5272830200195,62.28535297363281,533.3102830200196,68.14817297363281,533.3102830200196,68.14817297363281C533.7162830200195,68.19917297363281,534.1082830200196,68.33027297363282,534.4632830200195,68.53377297363281C534.8182830200195,68.73727297363281,535.1302830200195,69.00927297363282,535.3782830200196,69.33387297363281C535.6282830200196,69.65847297363281,535.8102830200196,70.02937297363282,535.9162830200196,70.42487297363282C536.0212830200195,70.8205729736328,536.0462830200195,71.23297297363281,535.9912830200195,71.63857297363282C535.9912830200195,71.63857297363282,534.4292830200195,83.15387297363282,534.4292830200195,83.15387297363282C534.3212830200196,83.96597297363282,533.8962830200195,84.70207297363281,533.2472830200195,85.20177297363281C532.5992830200196,85.7014729736328,531.7782830200196,85.9240729736328,530.9652830200196,85.82107297363281C530.9652830200196,85.82107297363281,530.9652830200196,85.82107297363281,530.9652830200196,85.82107297363281C530.9652830200196,85.82107297363281,530.9652830200196,85.82107297363281,530.9652830200196,85.82107297363281Z" fill="#699CFF" fill-opacity="1"/></g><g><path d="M318.68140411376953,132.41067082519533C318.68140411376953,132.41067082519533,331.47370411376954,136.4936708251953,331.47370411376954,136.4936708251953C331.47370411376954,136.4936708251953,343.7446041137695,74.26996082519531,343.7446041137695,74.26996082519531C343.7446041137695,74.26996082519531,324.1058941137695,71.25447082519531,324.1058941137695,71.25447082519531C324.1058941137695,71.25447082519531,318.68140411376953,132.41067082519533,318.68140411376953,132.41067082519533C318.68140411376953,132.41067082519533,318.68140411376953,132.41067082519533,318.68140411376953,132.41067082519533Z" fill="#DEE9FF" fill-opacity="1"/></g><g><path d="M419.05127716064453,164.44709916992187C419.05127716064453,164.44709916992187,431.84357716064454,168.53039916992188,431.84357716064454,168.53039916992188C431.84357716064454,168.53039916992188,464.9258771606445,98.85353916992187,464.9258771606445,98.85353916992187C464.9258771606445,98.85353916992187,450.83557716064456,95.44039916992188,450.83557716064456,95.44039916992188C450.83557716064456,95.44039916992188,419.05127716064453,164.44709916992187,419.05127716064453,164.44709916992187C419.05127716064453,164.44709916992187,419.05127716064453,164.44709916992187,419.05127716064453,164.44709916992187Z" fill="#DEE9FF" fill-opacity="1"/></g><g><path d="M369.85034942626953,148.74302133789064C369.85034942626953,148.74302133789064,381.6586494262695,152.51212133789062,381.6586494262695,152.51212133789062C381.6586494262695,152.51212133789062,406.95244942626954,86.85505133789063,406.95244942626954,86.85505133789063C406.95244942626954,86.85505133789063,387.6278494262695,82.85562133789062,387.6278494262695,82.85562133789062C387.6278494262695,82.85562133789062,369.85034942626953,148.74302133789064,369.85034942626953,148.74302133789064C369.85034942626953,148.74302133789064,369.85034942626953,148.74302133789064,369.85034942626953,148.74302133789064Z" fill="#DEE9FF" fill-opacity="1"/></g><g><path d="M354.8832650512695,76.74087524414062C354.8832650512695,76.74087524414062,374.2077650512695,80.74030524414063,374.2077650512695,80.74030524414063C374.2077650512695,80.74030524414063,357.05846505126954,144.65977524414063,357.05846505126954,144.65977524414063C357.05846505126954,144.65977524414063,344.26636505126953,140.57667524414063,344.26636505126953,140.57667524414063C344.26636505126953,140.57667524414063,354.8832650512695,76.74087524414062,354.8832650512695,76.74087524414062C354.8832650512695,76.74087524414062,354.8832650512695,76.74087524414062,354.8832650512695,76.74087524414062Z" fill="#DEE9FF" fill-opacity="1"/></g><g><path d="M438.71312208251953,92.65539223632813C438.71312208251953,92.65539223632813,419.3887220825195,88.65579223632812,419.3887220825195,88.65579223632812C419.3887220825195,88.65579223632812,395.43482208251953,156.90899223632812,395.43482208251953,156.90899223632812C395.43482208251953,156.90899223632812,407.2431220825195,160.67789223632812,407.2431220825195,160.67789223632812C407.2431220825195,160.67789223632812,438.71312208251953,92.65539223632813,438.71312208251953,92.65539223632813C438.71312208251953,92.65539223632813,438.71312208251953,92.65539223632813,438.71312208251953,92.65539223632813Z" fill="#DEE9FF" fill-opacity="1"/></g><g><path d="M321.1500150512695,212.69015319824217C329.42191505126954,212.69015319824217,336.1276150512695,205.9844531982422,336.1276150512695,197.71255319824218C336.1276150512695,189.44080319824218,329.42191505126954,182.7351531982422,321.1500150512695,182.7351531982422C312.8782650512695,182.7351531982422,306.17261505126953,189.44080319824218,306.17261505126953,197.71255319824218C306.17261505126953,205.9844531982422,312.8782650512695,212.69015319824217,321.1500150512695,212.69015319824217C321.1500150512695,212.69015319824217,321.1500150512695,212.69015319824217,321.1500150512695,212.69015319824217Z" fill="#A2BDFF" fill-opacity="1"/></g><g><path d="M414.6317045043945,242.52804382324217C422.90360450439454,242.52804382324217,429.6093045043945,235.8223438232422,429.6093045043945,227.55044382324218C429.6093045043945,219.27869382324218,422.90360450439454,212.5730438232422,414.6317045043945,212.5730438232422C406.3599545043945,212.5730438232422,399.65430450439453,219.27869382324218,399.65430450439453,227.55044382324218C399.65430450439453,235.8223438232422,406.3599545043945,242.52804382324217,414.6317045043945,242.52804382324217C414.6317045043945,242.52804382324217,414.6317045043945,242.52804382324217,414.6317045043945,242.52804382324217Z" fill="#A2BDFF" fill-opacity="1"/></g><g transform="matrix(0.9922533631324768,0.12423014640808105,-0.12422498315572739,0.9922540187835693,11.625489097381774,-61.361987333993966)"><path d="M538.0000099731445,62.53913879394531C538.0000099731445,62.53913879394531,498.2365729731445,62.53913879394531,498.2365729731445,62.53913879394531C498.01612797314453,62.53913879394531,497.83740997314453,62.717851793945314,497.83740997314453,62.938306793945316C497.83740997314453,62.938306793945316,497.83740997314453,82.19053879394531,497.83740997314453,82.19053879394531C497.83740997314453,82.41103879394531,498.01612797314453,82.58973879394532,498.2365729731445,82.58973879394532C498.2365729731445,82.58973879394532,538.0000099731445,82.58973879394532,538.0000099731445,82.58973879394532C538.2204099731446,82.58973879394532,538.3992099731445,82.41103879394531,538.3992099731445,82.19053879394531C538.3992099731445,82.19053879394531,538.3992099731445,62.938306793945316,538.3992099731445,62.938306793945316C538.3992099731445,62.717851793945314,538.2204099731446,62.53913879394531,538.0000099731445,62.53913879394531C538.0000099731445,62.53913879394531,538.0000099731445,62.53913879394531,538.0000099731445,62.53913879394531Z" fill="#A2BDFF" fill-opacity="1"/></g></g></g></svg>